PathFileType	4	(X/Y/Z)	./resultDataOpenSim/trcMotMarkerGrf/sub06/qtm-02-06.trc
DataRate	CameraRate	NumFrames	NumMarkers	Units	OrigDataRate	OrigDataStartFrame	OrigNumFrames
250.000000	250.000000	12	24	m	250.000000	435	497
Frame#	Time	L.Toe.Tip			R.Toe.Tip			L.Ankle.Lat			R.Ankle.Lat			L.Ankle.Med			R.Ankle.Med			L.Heel			R.Heel			L.Knee.Lat			R.Knee.Lat			L.Knee.Med			R.Knee.Med			L.Thigh.Upper			R.Thigh.Upper			L.ASIS			R.ASIS			V.Sacral			L.Acromium			R.Acromium			C7			L.Elbow			R.Elbow			L.Wrist.Lat			R.Wrist.Lat
		X1	Y1	Z1	X2	Y2	Z2	X3	Y3	Z3	X4	Y4	Z4	X5	Y5	Z5	X6	Y6	Z6	X7	Y7	Z7	X8	Y8	Z8	X9	Y9	Z9	X10	Y10	Z10	X11	Y11	Z11	X12	Y12	Z12	X13	Y13	Z13	X14	Y14	Z14	X15	Y15	Z15	X16	Y16	Z16	X17	Y17	Z17	X18	Y18	Z18	X19	Y19	Z19	X20	Y20	Z20	X21	Y21	Z21	X22	Y22	Z22	X23	Y23	Z23	X24	Y24	Z24

435	1.736	1.6372823	0.033356739	-0.020236402	1.0975203	0.085121151	0.14368844	1.5125369	0.066438458	-0.04355175	1.0902884	0.22328495	0.18028244	1.5141465	0.080511696	0.042276921	1.128533	0.21661239	0.09937393	1.4370474	0.039397266	-0.0010428368	1.0632372	0.26906966	0.11854221	1.5780055	0.43568734	-0.062199372	1.4318414	0.39483491	0.21488209	1.5539865	0.43238011	0.056496446	1.4263894	0.3794545	0.080708695	1.4449945	0.81019571	-0.12422792	1.387569	0.75766607	0.21169665	1.5036151	0.84705334	-0.067188727	1.4787471	0.82385132	0.17648668	1.3029001	0.90776763	0.04921025	1.4048194	1.3094081	-0.14689801	1.4001872	1.3134004	0.21767869	1.3230456	1.3479318	0.032249616	1.3256611	1.0020672	-0.18496259	1.3464591	0.99531356	0.29139381	1.4328982	0.78629381	-0.22857828	1.5442968	0.84619734	0.29342574
436	1.74	1.6372626	0.033354538	-0.020288806	1.1144094	0.086170361	0.14343696	1.5125477	0.06648782	-0.043717953	1.1036563	0.22426642	0.17980721	1.5143883	0.080640435	0.04220387	1.1418389	0.21835065	0.098954669	1.437021	0.039490423	-0.0010954367	1.0750767	0.26914321	0.11839018	1.579652	0.43554311	-0.062129409	1.4438898	0.39710698	0.21513461	1.5557204	0.43238722	0.056503183	1.4384821	0.38174669	0.08080303	1.4496376	0.81115484	-0.12441517	1.3937003	0.75930748	0.21130461	1.5091376	0.84816404	-0.067548008	1.4844776	0.82548883	0.17645205	1.3087803	0.90939391	0.048812374	1.4111693	1.3110907	-0.14689815	1.4055295	1.3151335	0.21762442	1.3289567	1.3494695	0.032026019	1.3336475	1.0031058	-0.18533316	1.3507983	0.99712625	0.29071806	1.443322	0.78833082	-0.22802894	1.5463841	0.84549537	0.29373932
437	1.744	1.6372454	0.033360275	-0.02033096	1.1316189	0.087132189	0.14318727	1.512556	0.066535302	-0.043826223	1.1171114	0.22487899	0.17934018	1.5145412	0.080746177	0.042151649	1.1552782	0.2196752	0.098555711	1.4369817	0.039599463	-0.0011739859	1.0871628	0.26894147	0.11822881	1.5812835	0.43543128	-0.061985188	1.4559838	0.39954438	0.21538959	1.557289	0.43237354	0.05655506	1.4507102	0.38406578	0.080816389	1.4543804	0.81211495	-0.12465816	1.3983403	0.76135256	0.21131525	1.5146324	0.8493175	-0.067935719	1.4902163	0.82713592	0.17637808	1.3146331	0.91094231	0.048454251	1.4174759	1.3128113	-0.14688275	1.4108505	1.316883	0.2175737	1.3348528	1.3510261	0.031824896	1.3416206	1.0041933	-0.18569194	1.3555762	0.99904116	0.29013642	1.4537758	0.79044543	-0.22746775	1.5484031	0.84489197	0.29407687
438	1.748	1.6372388	0.03337472	-0.020360844	1.1490808	0.087987887	0.14297597	1.512555	0.066575742	-0.043880606	1.1307445	0.22502052	0.1789047	1.5146583	0.08084718	0.042114644	1.1688578	0.22058665	0.098142479	1.4369319	0.039720041	-0.0013000374	1.0995617	0.26846696	0.11797066	1.5829651	0.43533763	-0.06177016	1.4680928	0.4021325	0.21563623	1.5586145	0.43232078	0.0566376	1.4631023	0.38639092	0.080782035	1.4592481	0.81306264	-0.12494526	1.4014504	0.76377522	0.21172557	1.5200671	0.85051606	-0.068331856	1.4959652	0.82879097	0.17626274	1.3204687	0.91243844	0.048121282	1.4237425	1.3145617	-0.14685416	1.41616	1.3186412	0.2175273	1.3407368	1.3526043	0.031641177	1.3496004	1.0053251	-0.18604775	1.3606329	1.0010622	0.28962998	1.4642518	0.79263162	-0.2268892	1.5503679	0.84437797	0.29444035
439	1.752	1.6372463	0.033392881	-0.020377268	1.1666008	0.088663288	0.14287356	1.5125467	0.066618688	-0.043919093	1.1447768	0.22466278	0.17853002	1.5147765	0.080951242	0.042091817	1.1825805	0.22113458	0.097714795	1.4368829	0.039839365	-0.0014573897	1.1122299	0.26771961	0.11768179	1.5847074	0.43525049	-0.061490516	1.4800328	0.40485028	0.21580265	1.5596718	0.43222358	0.056744567	1.4755264	0.38873717	0.080717322	1.4641565	0.8139911	-0.12522445	1.4041687	0.76628418	0.21223402	1.5254224	0.85176163	-0.068715545	1.501721	0.83045756	0.176108	1.3263156	0.91393794	0.047784984	1.4299735	1.3163371	-0.14681071	1.4214695	1.3203967	0.21748647	1.3466136	1.3541941	0.031470036	1.3575989	1.0064946	-0.18640287	1.3656863	1.0031633	0.28917339	1.4747435	0.79488369	-0.2262872	1.552291	0.84394515	0.29483186
440	1.756	1.6372647	0.033408004	-0.020380338	1.1839997	0.089096325	0.14293849	1.5125402	0.06667317	-0.043957333	1.1593338	0.22390744	0.17821938	1.514901	0.081057449	0.042088415	1.1964606	0.22136206	0.097316412	1.4368503	0.039949816	-0.0015756139	1.1251011	0.2667002	0.11748215	1.5864283	0.43516137	-0.061155679	1.4916648	0.40767948	0.2158286	1.5605232	0.43209943	0.056885676	1.4878142	0.39114653	0.080638652	1.4690577	0.81490606	-0.12545877	1.4077281	0.76859565	0.21251688	1.5307452	0.85305162	-0.069086435	1.5074724	0.83214442	0.17591805	1.3321824	0.91547942	0.047433535	1.4361736	1.3181352	-0.14674968	1.4267925	1.3221397	0.21745085	1.3524884	1.3557832	0.031306316	1.3656045	1.0076949	-0.18674945	1.3704399	1.0053011	0.28874172	1.4852494	0.79719602	-0.22566112	1.5541749	0.84359065	0.29525964
441	1.76	1.6372862	0.033415568	-0.020371122	1.2012432	0.089288167	0.14318345	1.5125441	0.066740613	-0.043980353	1.1741639	0.2229335	0.17793	1.5150182	0.081163604	0.042110781	1.2105431	0.22129185	0.097048169	1.4368403	0.040056134	-0.0015887835	1.1381159	0.26540884	0.11741044	1.5880284	0.43506291	-0.06077767	1.5030382	0.41060622	0.21573466	1.5612499	0.43197167	0.057072048	1.499882	0.39364904	0.080557596	1.4739593	0.81581567	-0.12563474	1.4124977	0.77066712	0.21253008	1.53616	0.85437637	-0.069471194	1.5132071	0.83385647	0.17569913	1.3380425	0.91705173	0.047086895	1.4423496	1.319955	-0.1466701	1.4321383	1.3238631	0.21742206	1.358365	1.3573625	0.031152782	1.3735982	1.008915	-0.18708376	1.3746665	1.0074441	0.28829684	1.4957734	0.79956194	-0.22501387	1.5560108	0.84331305	0.29573228
442	1.764	1.6373014	0.033414318	-0.020351283	1.2184067	0.089279857	0.14358881	1.5125591	0.06681495	-0.043969288	1.1888426	0.22187112	0.17761378	1.5151217	0.08126994	0.042158105	1.2248837	0.22094089	0.097025196	1.4368431	0.040166015	-0.0015008464	1.1512134	0.26383317	0.11736554	1.5894843	0.43495088	-0.060369611	1.514293	0.41361323	0.21559712	1.5619512	0.43185351	0.057317067	1.5117973	0.39624313	0.080468171	1.4788724	0.81671897	-0.12574285	1.418404	0.77260044	0.21247909	1.5417751	0.85572347	-0.069897741	1.5189185	0.83559063	0.17545901	1.3438512	0.91861876	0.046783284	1.4485111	1.3217949	-0.14657218	1.4375127	1.3255588	0.21740388	1.3642481	1.3589263	0.031024453	1.381573	1.0101414	-0.18741147	1.3783117	1.0095843	0.28778924	1.506325	0.8019744	-0.22434769	1.5577889	0.84310979	0.29624803
443	1.768	1.6373035	0.033405975	-0.020322976	1.2355821	0.089112307	0.14412127	1.5125778	0.066889143	-0.043922583	1.2032118	0.22074274	0.17726266	1.5152304	0.08137832	0.042218055	1.2394544	0.22033154	0.097226941	1.4368432	0.040283029	-0.0013657509	1.1643431	0.26194011	0.11720163	1.5908401	0.43482708	-0.059943369	1.5255439	0.41668169	0.21549768	1.5627857	0.43175305	0.057645954	1.5237239	0.39891396	0.080355618	1.4837886	0.81760921	-0.12576824	1.4254901	0.77447487	0.21261964	1.5475422	0.85708408	-0.070356318	1.5246091	0.83734305	0.17520309	1.3495667	0.92015254	0.046552267	1.454664	1.3236455	-0.14645533	1.4429256	1.3272144	0.21739443	1.3701407	1.3604754	0.030937701	1.3895358	1.0113629	-0.18773531	1.3815823	1.0117162	0.2872024	1.5169181	0.80442835	-0.22365946	1.5595084	0.84297633	0.29679608
444	1.772	1.6372926	0.033394909	-0.020288183	1.2528353	0.088816495	0.14474154	1.5125924	0.066962358	-0.043850856	1.2173988	0.21950527	0.176892	1.5153632	0.081487654	0.042275108	1.2540759	0.21949959	0.097398905	1.4368341	0.040409369	-0.0012276321	1.1775045	0.25969622	0.11681897	1.5921419	0.434697	-0.059507717	1.5368273	0.41980076	0.21548091	1.5638244	0.43167322	0.058062821	1.535713	0.40166235	0.080220829	1.4887112	0.81849208	-0.12572724	1.4335853	0.77632572	0.2130719	1.5532383	0.85845519	-0.070796169	1.5302938	0.83911598	0.17493345	1.3551719	0.92162714	0.046394657	1.4608035	1.3254865	-0.14631748	1.4483905	1.3288162	0.21738308	1.3760412	1.3620176	0.030892972	1.3974963	1.0125741	-0.18805297	1.3848684	1.0138221	0.28658875	1.5275781	0.80692218	-0.22293267	1.5611798	0.84290576	0.2973696
445	1.776	1.6372765	0.03338618	-0.020247875	1.2702095	0.088418389	0.14541512	1.5125999	0.067040308	-0.043763732	1.2315469	0.21811571	0.17650936	1.5154501	0.081585276	0.042332577	1.2685386	0.2184891	0.097229734	1.4368201	0.04054861	-0.0011070127	1.1907663	0.25711551	0.11613158	1.5934031	0.43456555	-0.059069009	1.5480583	0.42296091	0.21550641	1.5649155	0.43160561	0.058522113	1.5476565	0.4045156	0.080085319	1.4936653	0.81939782	-0.12569958	1.4419066	0.77817715	0.21372691	1.558665	0.85983624	-0.071170748	1.5359988	0.84091561	0.17465181	1.3606989	0.9230147	0.046278079	1.4669199	1.3273004	-0.14615922	1.4539102	1.3303565	0.21735932	1.3819437	1.3635504	0.030870242	1.4054528	1.013775	-0.18836653	1.3884621	1.0158874	0.28602594	1.5383499	0.80945434	-0.22214232	1.5628194	0.84288957	0.29797188
446	1.78	1.637265	0.033382388	-0.020202953	1.2877451	0.087943316	0.14611773	1.5126018	0.067130514	-0.043668258	1.2457096	0.21656083	0.17611453	1.5152082	0.081636073	0.042433559	1.2827969	0.21732818	0.096636311	1.4368108	0.040704063	-0.0010170212	1.204203	0.25427128	0.11509779	1.5946198	0.4344355	-0.058634103	1.5591223	0.4261459	0.21548376	1.5658383	0.43154606	0.058967544	1.5595628	0.40752246	0.079955825	1.4986591	0.82035273	-0.12576177	1.4495687	0.78004745	0.21435677	1.5638635	0.86122131	-0.071478828	1.5417416	0.8427459	0.17435885	1.3662177	0.92432092	0.04615489	1.4730117	1.3290819	-0.14598895	1.4594737	1.3318389	0.2173232	1.3878401	1.3650534	0.030840571	1.4133948	1.014967	-0.18868383	1.392351	1.0179146	0.28553727	1.5492488	0.81202017	-0.22128179	1.5644424	0.84291869	0.29860721
